<svg xmlns="http://www.w3.org/2000/svg" width="1600" height="900" viewBox="0 0 1600 900"><rect width="1600" height="900" fill="#f5f7fb"/><text x="90" y="105" font-family="Arial,sans-serif" font-size="22" font-weight="700" fill="#2354ff">Presenter / By + Name</text><text x="90" y="138" font-family="Arial,sans-serif" font-size="22" fill="#2354ff">Date / 2080.09.28</text><line x1="305" y1="112" x2="1330" y2="112" stroke="#6f8cff" stroke-width="2"/><text x="1395" y="112" font-family="Arial,sans-serif" font-size="24" font-weight="700" fill="#111">회사 로고</text><text x="90" y="395" font-family="Arial,sans-serif" font-size="112" fill="#234ff5">IR Deck</text><text x="90" y="500" font-family="Arial,sans-serif" font-size="48" font-weight="700" fill="#111">│ 20페이지로 완성하는 IR덱</text><rect x="88" y="720" width="190" height="56" rx="28" fill="#262626"/><text x="158" y="757" font-family="Arial,sans-serif" font-size="26" fill="#fff">날짜</text><rect x="88" y="790" width="190" height="56" rx="28" fill="#234ff5"/><text x="120" y="827" font-family="Arial,sans-serif" font-size="24" fill="#fff">Innovation</text><g transform="translate(1000,210)"><polygon points="0,330 280,190 530,320 250,470" fill="#3867f5"/><polygon points="0,390 250,530 530,390 530,470 250,610 0,470" fill="#1d43c7"/><polygon points="0,455 250,595 530,455 530,540 250,680 0,540" fill="#6ea7ff"/><circle cx="280" cy="180" r="105" fill="#27c5e6" opacity=".9"/><ellipse cx="280" cy="180" rx="170" ry="70" fill="none" stroke="#3f75ff" stroke-width="5"/><ellipse cx="280" cy="180" rx="70" ry="170" fill="none" stroke="#3f75ff" stroke-width="5" transform="rotate(45 280 180)"/><ellipse cx="280" cy="180" rx="70" ry="170" fill="none" stroke="#3f75ff" stroke-width="5" transform="rotate(-45 280 180)"/></g></svg>